<svg width="364" height="150" viewBox="0 0 364 150" fill="none" xmlns="http://www.w3.org/2000/svg">
<g clip-path="url(#clip0_403_41685)">
<path d="M207.948 14.7957H196.46V20.1975H201.696V34.2894C201.696 37.3426 199.742 38.9867 196.773 38.9867C193.803 38.9867 191.693 37.4209 191.693 34.2894V30.8447H185.91V34.446C185.91 40.7873 190.755 44.5451 196.851 44.5451C202.946 44.5451 208.026 40.7873 208.026 34.446V14.7957H207.948Z" fill="#383535"/>
<path d="M225.296 24.3473L229.359 33.9767H221.232L225.296 24.3473ZM231.313 39.3003L233.579 44.1542H240.065V43.293L226.702 14.5613H223.811L210.37 43.293V44.1542H216.856L219.122 39.3003H231.313Z" fill="#383535"/>
<path d="M256.241 32.0195C257.179 32.0195 258.038 32.0978 258.742 32.5675C259.601 33.1938 260.07 34.2898 260.07 35.4642C259.914 37.4214 258.663 38.674 256.553 38.674H249.598V31.9412H256.241V32.0195ZM255.303 20.198C257.491 20.198 258.82 21.6072 258.82 23.7209C258.742 25.6781 257.413 26.8525 255.303 26.8525H249.598V20.198H255.303V20.198ZM264.915 23.5644C264.915 18.0842 261.086 14.8744 255.694 14.8744H243.269V44.1541H256.866C262.727 44.1541 266.165 40.6312 266.165 35.4642C266.165 32.4892 264.681 30.0623 262.024 28.9662C263.821 27.7919 264.915 25.6781 264.915 23.5644Z" fill="#383535"/>
<path d="M282.185 24.3473L286.248 33.9767H278.199L282.185 24.3473ZM288.28 39.3003L290.546 44.1542H297.032V43.293L283.669 14.5613H280.778L267.337 43.293V44.1542H273.823L276.089 39.3003H288.28Z" fill="#383535"/>
<path d="M306.413 29.2802V20.277H312.665C315.322 20.277 316.963 22.2343 316.963 24.7395C317.041 27.2447 315.322 29.2802 312.665 29.2802H306.413ZM317.823 33.4295C321.183 31.7854 323.059 28.4973 323.059 24.8178C323.059 19.6507 319.386 14.7969 312.743 14.7969C308.601 14.7186 304.46 14.7969 300.24 14.7969V44.1549H306.491V34.4472H311.727L317.745 44.1549H324.465V43.2938L317.823 33.4295Z" fill="#383535"/>
<path d="M195.443 84.4726V66.5446H199.975C205.289 66.5446 208.181 70.7721 208.181 75.4694C208.181 80.1667 205.367 84.4726 199.975 84.4726H195.443ZM189.191 60.9078V90.1876H200.053C209.509 90.1876 214.51 82.9851 214.354 75.4694C214.354 68.0321 209.353 60.9861 200.053 60.9861H189.191V60.9078Z" fill="#383535"/>
<path d="M227.874 85.1774V65.6837H231.703V60.8298H217.871V65.6837H221.622V85.1774H217.481V90.1096H232.016V85.1774H227.874Z" fill="#383535"/>
<path d="M235.144 75.4705C235.144 85.1783 242.333 90.5018 250.07 90.5018C255.696 90.5018 260.854 87.9966 263.12 82.125C264.058 79.4632 264.136 76.7231 263.98 73.9048H250.304V79.1501H258.275C257.025 83.5342 254.133 84.7868 250.07 84.7868C244.834 84.7868 241.474 81.029 241.474 75.4705C241.474 70.2252 244.6 66.076 250.07 66.076C253.43 66.076 255.774 67.172 257.181 70.0686H263.355C261.714 63.2576 255.853 60.4392 250.07 60.4392C242.411 60.5175 235.144 65.7628 235.144 75.4705Z" fill="#383535"/>
<path d="M277.655 85.1774V65.6837H281.406V60.8298H267.574V65.6837H271.325V85.1774H267.184V90.1096H281.719V85.1774H277.655Z" fill="#383535"/>
<path d="M292.189 66.31V90.1096H298.285V66.31H306.021V60.8298H284.375V66.31H292.189Z" fill="#383535"/>
<path d="M319.23 70.3802L323.294 80.0096H315.167L319.23 70.3802ZM325.248 85.2549L327.514 90.1088H334V89.2476L320.637 60.5159H317.745L304.304 89.2476V90.1088H310.79L313.057 85.2549H325.248Z" fill="#383535"/>
<path d="M342.438 60.8298H336.187V90.1096H354.629V84.5511H342.438V60.8298Z" fill="#383535"/>
<path d="M187.552 127.531C187.552 133.951 193.647 136.847 199.43 136.847C205.213 136.691 211.152 134.577 211.152 127.688C211.152 120.798 205.838 119.467 199.664 118.919C196.617 118.606 194.038 117.98 194.038 115.396C194.038 113.126 196.539 111.795 199.039 111.795C201.54 111.795 204.041 112.813 204.353 115.162H210.214C210.214 108.585 204.51 106.315 199.039 106.315C193.256 106.315 187.942 109.055 187.942 115.553C187.942 121.659 193.256 123.382 198.57 123.851C201.384 124.086 204.978 124.321 204.978 127.688C204.978 130.741 202.009 131.367 199.352 131.367C196.539 131.367 193.569 130.271 193.491 127.531H187.552V127.531Z" fill="#383535"/>
<path d="M234.126 106.863H216.23V136.143H234.439V130.506H222.56V123.774H233.345V118.293H222.56V112.343H234.126V106.863Z" fill="#383535"/>
<path d="M246.317 121.347V112.343H252.569C255.226 112.343 256.867 114.301 256.867 116.806C256.945 119.311 255.226 121.347 252.569 121.347H246.317ZM257.727 125.496C261.087 123.852 262.963 120.564 262.963 116.884C262.963 111.717 259.29 106.863 252.647 106.863C248.505 106.785 244.364 106.863 240.144 106.863V136.221H246.396V126.514H251.631L257.649 136.221H264.369V135.36L257.727 125.496Z" fill="#383535"/>
<path d="M278.826 125.731L275.544 116.258L271.637 106.863H264.995V107.803L277.576 136.456H280.155L292.58 107.803V106.863H285.938L282.03 116.336L278.983 125.731H278.826Z" fill="#383535"/>
<path d="M305.161 131.211V111.717H308.912V106.863H295.08V111.717H298.909V131.211H294.768V136.143H309.303V131.211H305.161Z" fill="#383535"/>
<path d="M312.429 121.581C312.429 131.289 319.697 136.456 327.355 136.456C333.45 136.456 339.702 133.246 340.953 125.496H334.935C333.919 129.019 330.95 130.741 327.355 130.741C322.119 130.741 318.759 126.592 318.759 121.503C318.759 115.945 322.197 112.187 327.433 112.187C330.95 112.187 333.607 113.674 334.857 116.962H340.953C339.624 109.76 333.372 106.55 327.433 106.55C319.697 106.472 312.429 111.795 312.429 121.581Z" fill="#383535"/>
<path d="M362.679 106.863H344.784V136.143H363.07V130.506H351.113V123.774H361.976V118.293H351.113V112.343H362.679V106.863Z" fill="#383535"/>
<path fill-rule="evenodd" clip-rule="evenodd" d="M57.8283 51.4353C60.1727 51.4353 62.1264 53.3925 62.1264 55.7411C62.1264 58.0898 60.1727 60.047 57.8283 60.047C55.4839 60.047 53.5303 58.0898 53.5303 55.7411C53.6084 53.3142 55.4839 51.4353 57.8283 51.4353ZM41.1832 51.4353C43.5275 51.4353 45.4812 53.3925 45.4812 55.7411C45.4812 58.0898 43.6057 60.047 41.1832 60.047C38.8388 60.047 36.8851 58.0898 36.8851 55.7411C36.8851 53.3142 38.7606 51.4353 41.1832 51.4353ZM24.4598 51.4353C26.8042 51.4353 28.7579 53.3925 28.7579 55.7411C28.7579 58.0898 26.8824 60.047 24.4598 60.047C22.1154 60.047 20.1618 58.0898 20.1618 55.7411C20.1618 53.3142 22.1154 51.4353 24.4598 51.4353ZM48.6071 17.1451H25.4757C23.1313 17.1451 21.1777 19.1023 21.1777 21.4509C21.1777 23.7996 23.1313 25.7568 25.4757 25.7568H65.1741C67.5185 25.7568 69.394 27.714 69.394 30.0626C69.394 32.4113 67.4403 34.3685 65.096 34.3685H2.57883C1.64107 34.3685 0.781464 34.8382 0.312586 35.6994C0.156293 36.0125 0 36.4823 0 36.952C0 37.4217 0.0781464 37.8132 0.312586 38.2829L9.92459 55.1148C10.2372 55.6628 10.8624 55.8977 11.4094 55.7411C12.0345 55.5845 12.4253 55.0365 12.4253 54.4885V42.8236H80.3345C82.6789 42.8236 84.6326 44.7808 84.6326 47.1294C84.6326 49.4781 82.6789 51.4353 80.3345 51.4353H74.5517C72.2073 51.4353 70.2536 53.3925 70.2536 55.7411C70.2536 58.0898 72.2073 60.047 74.5517 60.047H81.9756C95.2605 60.1253 107.139 65.9186 115.344 75C122.455 67.0146 126.753 56.524 126.753 45.0157C126.753 20.2766 106.826 0.156576 82.1319 0L46.7315 0C44.3872 0 42.4335 1.9572 42.4335 4.30585C42.4335 6.65449 44.3872 8.61169 46.7315 8.61169H48.3726H48.6852C51.0296 8.61169 52.9833 10.5689 52.9833 12.9175C52.9051 15.1879 50.9515 17.1451 48.6071 17.1451Z" fill="#1BACE3"/>
<path d="M81.9763 0C123.159 0 156.841 33.7422 156.841 75C156.841 116.258 123.159 150 81.9763 150C106.749 149.922 126.754 129.802 126.754 104.984C126.754 93.476 122.456 82.9854 115.345 75C122.456 67.0146 126.754 56.524 126.754 45.0157C126.832 20.1983 106.749 0.0782881 81.9763 0Z" fill="#009457"/>
<path fill-rule="evenodd" clip-rule="evenodd" d="M115.345 75C107.139 84.238 95.1831 90.0313 81.8982 90.0313H36.8858C21.491 90.0313 8.83128 101.618 7.11206 116.571V123.46C8.83128 138.413 21.491 150 36.8858 150H81.9763C106.749 149.922 126.754 129.802 126.754 104.984C126.832 93.476 122.456 82.9854 115.345 75Z" fill="#FFC630"/>
</g>
<defs>
<clipPath id="clip0_403_41685">
<rect width="363.068" height="150" fill="white"/>
</clipPath>
</defs>
</svg>
